<svg width="249" height="234" viewBox="0 0 249 234" fill="none" xmlns="http://www.w3.org/2000/svg">
<path d="M126.06 6.04121C126.06 6.04121 79.5332 -12.46 57.1457 15.2918C34.7581 43.0984 89.2217 79.3892 33.0065 107.141C-6.73278 126.682 13.5748 179.668 55.6678 172.826C103.508 165.108 70.9942 138.013 176.637 154.16C228.966 162.152 267.611 50.9258 126.06 6.04121Z" fill="#9A9FB2"/>
<path d="M171.382 16.9883C173.572 14.3062 172.641 10.3651 169.576 8.77769C167.168 7.51873 164.157 6.86188 161.913 9.32506C157.534 14.1967 164.102 17.4262 167.551 18.4115C168.974 18.8494 170.671 17.8093 171.382 16.9883Z" fill="#E6E9F4"/>
<path d="M123.433 233.201C191.603 233.201 246.865 230.873 246.865 228.001C246.865 225.129 191.603 222.801 123.433 222.801C55.2627 222.801 0 225.129 0 228.001C0 230.873 55.2627 233.201 123.433 233.201Z" fill="#C7CAD8"/>
<path d="M174.667 36.5851C174.448 36.5851 174.284 36.5304 174.174 36.3114L168.755 27.4987C168.591 27.225 168.7 26.8966 168.919 26.7324C169.193 26.5682 169.521 26.6776 169.686 26.8966L175.105 35.7093C175.269 35.983 175.159 36.3114 174.94 36.4756C174.831 36.5304 174.721 36.5851 174.667 36.5851Z" fill="#9A9FB2"/>
<path d="M171.547 42.9343C171.328 42.9343 171.054 42.8248 170.999 42.6059C170.89 42.3322 171.054 42.0037 171.328 41.8943L181.947 38.0079C182.221 37.8984 182.549 38.0627 182.658 38.3363C182.768 38.61 182.604 38.9385 182.33 39.0479L171.711 42.9343C171.656 42.9343 171.601 42.9343 171.547 42.9343Z" fill="#9A9FB2"/>
<path d="M169.959 46.3827C169.74 46.3827 169.521 46.2732 169.412 46.0543L165.745 37.5153C165.635 37.2416 165.745 36.9131 166.018 36.8037C166.292 36.6942 166.62 36.8037 166.73 37.0774L170.397 45.6164C170.507 45.8901 170.397 46.2185 170.124 46.328C170.069 46.3827 170.014 46.3827 169.959 46.3827Z" fill="#9A9FB2"/>
<path d="M61.7438 100.518C61.7438 100.518 69.4618 98.3833 65.1923 84.9727C65.1923 84.9727 54.2995 91.5959 61.7438 100.518Z" fill="#C7CAD8"/>
<path d="M194.153 151.041C194.153 151.041 200.722 155.638 208.385 143.815C208.385 143.815 196.343 139.6 194.153 151.041Z" fill="#C7CAD8"/>
<path d="M190.486 157.335C190.486 157.335 195.467 151.04 184.082 142.72C184.082 142.72 179.21 154.488 190.486 157.335Z" fill="#C7CAD8"/>
<path d="M196.89 137.685C196.89 137.685 203.677 133.415 195.686 121.811C195.74 121.756 187.201 131.226 196.89 137.685Z" fill="#C7CAD8"/>
<path d="M183.589 170.253C183.589 170.253 188.187 176.821 199.408 168.282C199.408 168.282 189.5 160.236 183.589 170.253Z" fill="#C7CAD8"/>
<path d="M168.974 191.437C168.974 191.437 161.147 189.685 164.759 176.056C164.759 176.056 175.98 182.131 168.974 191.437Z" fill="#C7CAD8"/>
<path d="M223.876 43.7011C221.905 43.7011 219.989 43.1537 218.457 42.1684L214.023 43.2632C213.859 43.3179 213.749 43.2632 213.64 43.1537C213.53 43.0442 213.53 42.88 213.585 42.7705L215.665 38.9937C215.391 38.2821 215.227 37.5705 215.227 36.8042C215.227 34.9431 216.158 33.1915 217.8 31.8778C219.442 30.5641 221.577 29.8525 223.821 29.8525C226.12 29.8525 228.255 30.5641 229.842 31.8778C231.484 33.1915 232.415 34.9431 232.415 36.8042C232.415 38.6652 231.484 40.4168 229.842 41.7305C228.309 42.9895 226.175 43.7011 223.876 43.7011ZM218.566 41.4021C218.621 41.4021 218.73 41.4021 218.785 41.4569C220.208 42.4421 222.015 42.9348 223.93 42.9348C228.255 42.9348 231.813 40.1432 231.813 36.7494C231.813 33.3557 228.309 30.5641 223.93 30.5641C219.606 30.5641 216.048 33.3557 216.048 36.7494C216.048 37.461 216.212 38.1726 216.486 38.8295C216.541 38.9389 216.541 39.0484 216.486 39.1579L214.735 42.3326L218.511 41.4021C218.511 41.4021 218.511 41.4021 218.566 41.4021Z" fill="#9A9FB2"/>
<path d="M227.653 38.4999C226.777 38.4999 226.12 37.7883 226.12 36.9672C226.12 36.0914 226.831 35.4346 227.653 35.4346C228.528 35.4346 229.185 36.1462 229.185 36.9672C229.185 37.7883 228.528 38.4999 227.653 38.4999ZM227.653 36.0914C227.215 36.0914 226.831 36.4746 226.831 36.9125C226.831 37.3504 227.215 37.7335 227.653 37.7335C228.09 37.7335 228.474 37.3504 228.474 36.9125C228.474 36.4746 228.09 36.0914 227.653 36.0914Z" fill="#9A9FB2"/>
<path d="M223.876 38.4999C223 38.4999 222.343 37.7883 222.343 36.9672C222.343 36.0914 223.055 35.4346 223.876 35.4346C224.751 35.4346 225.408 36.1462 225.408 36.9672C225.463 37.7883 224.751 38.4999 223.876 38.4999ZM223.876 36.0914C223.438 36.0914 223.055 36.4746 223.055 36.9125C223.055 37.3504 223.438 37.7335 223.876 37.7335C224.314 37.7335 224.697 37.3504 224.697 36.9125C224.697 36.4746 224.368 36.0914 223.876 36.0914Z" fill="#9A9FB2"/>
<path d="M220.099 38.4999C219.223 38.4999 218.566 37.7883 218.566 36.9672C218.566 36.0914 219.278 35.4346 220.099 35.4346C220.92 35.4346 221.631 36.1462 221.631 36.9672C221.686 37.7883 220.975 38.4999 220.099 38.4999ZM220.099 36.0914C219.661 36.0914 219.278 36.4746 219.278 36.9125C219.278 37.3504 219.661 37.7335 220.099 37.7335C220.537 37.7335 220.92 37.3504 220.92 36.9125C220.92 36.4746 220.591 36.0914 220.099 36.0914Z" fill="#9A9FB2"/>
<path d="M44.4468 23.0646C41.1626 23.0646 38.4805 20.3824 38.4805 17.0982C38.4805 13.814 41.1626 11.1318 44.4468 11.1318C47.7311 11.1318 50.4132 13.814 50.4132 17.0982C50.4132 20.3824 47.7311 23.0646 44.4468 23.0646ZM44.4468 11.8434C41.5458 11.8434 39.1921 14.1971 39.1921 17.0982C39.1921 19.9993 41.5458 22.353 44.4468 22.353C47.3479 22.353 49.7016 19.9993 49.7016 17.0982C49.7016 14.1971 47.3479 11.8434 44.4468 11.8434Z" fill="#9A9FB2"/>
<path d="M44.4468 17.4271C44.3921 17.4271 44.2826 17.3724 44.2279 17.3177C44.1731 17.2629 44.1184 17.1534 44.1184 17.044V13.0481C44.1184 12.8839 44.2826 12.7197 44.4468 12.7197C44.611 12.7197 44.7753 12.8839 44.7753 13.0481V16.6608L47.7858 16.2777C47.95 16.2777 48.1142 16.3871 48.169 16.5513C48.169 16.7155 48.0595 16.8798 47.8953 16.9345L44.4468 17.4271Z" fill="#9A9FB2"/>
<path d="M231.648 48.7906H214.406C214.242 48.7906 214.078 48.6264 214.078 48.4622C214.078 48.298 214.242 48.1338 214.406 48.1338H231.648C231.813 48.1338 231.977 48.298 231.977 48.4622C231.977 48.6264 231.867 48.7906 231.648 48.7906Z" fill="#9A9FB2"/>
<path d="M149.761 10.0376C148.448 10.0376 147.353 8.94284 147.353 7.62915C147.353 6.31545 148.448 5.2207 149.761 5.2207C151.075 5.2207 152.17 6.31545 152.17 7.62915C152.17 8.94284 151.075 10.0376 149.761 10.0376ZM149.761 5.93229C148.831 5.93229 148.064 6.69861 148.064 7.62915C148.064 8.55968 148.831 9.326 149.761 9.326C150.692 9.326 151.458 8.55968 151.458 7.62915C151.513 6.69861 150.746 5.93229 149.761 5.93229Z" fill="#9A9FB2"/>
<path d="M142.755 8.01134H94.0386C93.8744 8.01134 93.7102 7.84713 93.7102 7.68292C93.7102 7.5187 93.8744 7.35449 94.0386 7.35449H142.755C142.919 7.35449 143.083 7.5187 143.083 7.68292C143.083 7.84713 142.919 8.01134 142.755 8.01134Z" fill="#9A9FB2"/>
<path d="M174.503 23.8313V216.78C174.503 219.791 173.298 222.528 171.328 224.498C169.357 226.469 166.62 227.728 163.555 227.728H67.4912C61.4701 227.728 56.5437 222.801 56.5437 216.78V23.8313C56.5437 19.5617 58.9521 15.8943 62.5101 14.088C63.988 13.3217 65.6848 12.8838 67.4912 12.8838H163.555C169.631 12.8838 174.503 17.7554 174.503 23.8313Z" fill="#0C0B0B"/>
<path d="M174.503 66.4173H177.294C177.568 66.4173 177.732 66.1983 177.732 65.9794V46.1645C177.732 45.8908 177.513 45.7266 177.294 45.7266H174.503V66.4173Z" fill="#453F3F"/>
<path d="M56.5437 73.0407H53.0952C52.7668 73.0407 52.5479 72.7671 52.5479 72.4934V48.1353C52.5479 47.8068 52.8215 47.5879 53.0952 47.5879H56.5437V73.0407Z" fill="#453F3F"/>
<path d="M56.5437 101.997H53.0952C52.7668 101.997 52.5479 101.723 52.5479 101.449V77.0913C52.5479 76.7629 52.8215 76.5439 53.0952 76.5439H56.5437V101.997Z" fill="#453F3F"/>
<path d="M169.029 23.1743V217.437C169.029 218.094 168.919 218.751 168.646 219.353C167.934 221.104 166.182 222.309 164.212 222.309H66.8342C64.1521 222.309 62.0173 220.174 62.0173 217.492V23.1743C62.0173 21.2038 63.2216 19.4522 64.9184 18.7406C65.5205 18.4669 66.1226 18.3574 66.8342 18.3574H164.212C166.894 18.3027 169.029 20.4922 169.029 23.1743Z" fill="#C7CAD8"/>
<path d="M169.029 182.569V217.382C169.029 218.039 168.919 218.696 168.646 219.298C167.934 221.049 166.182 222.254 164.212 222.254H66.8342C64.1521 222.254 62.0173 220.119 62.0173 217.437V182.569C62.3458 178.573 65.6847 175.453 69.79 175.453H161.311C165.361 175.453 168.7 178.628 169.029 182.569Z" fill="white"/>
<path d="M107.942 196.089H75.8111C74.8806 196.089 74.1143 195.323 74.1143 194.392V190.287C74.1143 189.356 74.8806 188.59 75.8111 188.59H107.942C108.872 188.59 109.639 189.356 109.639 190.287V194.392C109.584 195.323 108.872 196.089 107.942 196.089Z" fill="#FFB8B4"/>
<path d="M107.942 212.401H75.8111C74.8806 212.401 74.1143 211.635 74.1143 210.705V206.599C74.1143 205.669 74.8806 204.902 75.8111 204.902H107.942C108.872 204.902 109.639 205.669 109.639 206.599V210.705C109.584 211.635 108.872 212.401 107.942 212.401Z" fill="#002F6A"/>
<path d="M156.658 196.089H124.527C123.597 196.089 122.831 195.323 122.831 194.392V190.287C122.831 189.356 123.597 188.59 124.527 188.59H156.658C157.589 188.59 158.355 189.356 158.355 190.287V194.392C158.355 195.323 157.589 196.089 156.658 196.089Z" fill="#011500"/>
<path d="M156.658 212.401H124.527C123.597 212.401 122.831 211.635 122.831 210.705V206.599C122.831 205.669 123.597 204.902 124.527 204.902H156.658C157.589 204.902 158.355 205.669 158.355 206.599V210.705C158.355 211.635 157.589 212.401 156.658 212.401Z" fill="#C7CAD8"/>
<path d="M141.386 181.255H91.0828C90.426 181.255 89.9333 180.762 89.9333 180.106C89.9333 179.449 90.426 178.956 91.0828 178.956H141.386C142.043 178.956 142.536 179.449 142.536 180.106C142.536 180.708 142.043 181.255 141.386 181.255Z" fill="#C7CAD8"/>
<path d="M62.0173 23.1743V32.206H169.083V23.1743C169.083 20.4922 166.949 18.3574 164.267 18.3574H66.8342C66.1774 18.3574 65.5205 18.4669 64.9184 18.7406C63.2216 19.4522 62.0173 21.149 62.0173 23.1743Z" fill="white"/>
<path d="M151.786 25.637C151.786 26.6223 150.965 27.4434 149.98 27.4434C148.995 27.4434 148.174 26.6223 148.174 25.637C148.174 24.6518 148.995 23.8307 149.98 23.8307C150.965 23.776 151.786 24.597 151.786 25.637Z" fill="#777D15"/>
<path d="M158.136 25.637C158.136 26.6223 157.315 27.4434 156.33 27.4434C155.344 27.4434 154.523 26.6223 154.523 25.637C154.523 24.6518 155.344 23.8307 156.33 23.8307C157.315 23.776 158.136 24.597 158.136 25.637Z" fill="#EF6931"/>
<path d="M164.431 25.637C164.431 26.6223 163.61 27.4434 162.624 27.4434C161.639 27.4434 160.818 26.6223 160.818 25.637C160.818 24.6518 161.639 23.8307 162.624 23.8307C163.61 23.776 164.431 24.597 164.431 25.637Z" fill="#0C0B0B"/>
<path d="M142.81 18.1924L140.128 20.8745C137.445 23.5566 133.833 25.0345 130.056 25.0345H100.936C97.1588 25.0345 93.5461 23.5566 90.864 20.8745L88.2366 18.2471L142.81 18.1924Z" fill="#0C0B0B"/>
<path d="M96.1735 21.5866H134.873C134.927 21.5866 134.982 21.5319 134.982 21.4771V19.8898C134.982 19.835 134.927 19.7803 134.873 19.7803H96.1735C96.1187 19.7803 96.064 19.835 96.064 19.8898V21.4771C96.0093 21.5319 96.1187 21.5866 96.1735 21.5866Z" fill="#453F3F"/>
<path d="M158.081 123.617H75.1544C73.4575 123.617 72.0891 122.248 72.0891 120.552V89.4061C72.0891 87.7092 73.4575 86.3408 75.1544 86.3408H158.081C159.778 86.3408 161.147 87.7092 161.147 89.4061V120.552C161.092 122.248 159.724 123.617 158.081 123.617Z" fill="#9A9FB2"/>
<path d="M155.947 121.537H73.0196C71.3228 121.537 69.9543 120.168 69.9543 118.472V87.326C69.9543 85.6292 71.3228 84.2607 73.0196 84.2607H155.947C157.644 84.2607 159.012 85.6292 159.012 87.326V118.472C159.012 120.168 157.644 121.537 155.947 121.537Z" fill="white"/>
<path d="M152.443 95.7012H106.136C105.369 95.7012 104.767 95.0991 104.767 94.3328V93.7854C104.767 93.0191 105.369 92.417 106.136 92.417H152.443C153.21 92.417 153.812 93.0191 153.812 93.7854V94.3328C153.812 95.0444 153.21 95.7012 152.443 95.7012Z" fill="#FFA03F"/>
<path d="M125.348 102.762H105.862C105.26 102.762 104.767 102.27 104.767 101.667V101.23C104.767 100.627 105.26 100.135 105.862 100.135H125.348C125.95 100.135 126.443 100.627 126.443 101.23V101.667C126.443 102.27 125.95 102.762 125.348 102.762Z" fill="#C7CAD8"/>
<path d="M125.348 114.367H105.862C105.26 114.367 104.767 113.874 104.767 113.272V112.834C104.767 112.232 105.26 111.739 105.862 111.739H125.348C125.95 111.739 126.443 112.232 126.443 112.834V113.272C126.443 113.874 125.95 114.367 125.348 114.367Z" fill="#C7CAD8"/>
<path d="M125.348 108.509H105.862C105.26 108.509 104.767 108.017 104.767 107.414V106.977C104.767 106.374 105.26 105.882 105.862 105.882H125.348C125.95 105.882 126.443 106.374 126.443 106.977V107.414C126.443 108.017 125.95 108.509 125.348 108.509Z" fill="#C7CAD8"/>
<path d="M152.717 102.762H133.23C132.628 102.762 132.136 102.27 132.136 101.667V101.23C132.136 100.627 132.628 100.135 133.23 100.135H152.717C153.319 100.135 153.812 100.627 153.812 101.23V101.667C153.812 102.27 153.319 102.762 152.717 102.762Z" fill="#C7CAD8"/>
<path d="M152.717 114.367H133.23C132.628 114.367 132.136 113.874 132.136 113.272V112.834C132.136 112.232 132.628 111.739 133.23 111.739H152.717C153.319 111.739 153.812 112.232 153.812 112.834V113.272C153.812 113.874 153.319 114.367 152.717 114.367Z" fill="#C7CAD8"/>
<path d="M152.717 108.509H133.23C132.628 108.509 132.136 108.017 132.136 107.414V106.977C132.136 106.374 132.628 105.882 133.23 105.882H152.717C153.319 105.882 153.812 106.374 153.812 106.977V107.414C153.812 108.017 153.319 108.509 152.717 108.509Z" fill="#C7CAD8"/>
<path d="M87.5797 114.859C81.0112 114.859 75.647 109.494 75.647 102.926C75.647 96.3574 81.0112 90.9932 87.5797 90.9932C94.1482 90.9932 99.5124 96.3574 99.5124 102.926C99.5124 109.494 94.2029 114.859 87.5797 114.859ZM87.5797 92.5805C81.887 92.5805 77.2891 97.2332 77.2891 102.871C77.2891 108.564 81.9418 113.162 87.5797 113.162C93.2176 113.162 97.8703 108.509 97.8703 102.871C97.9251 97.2332 93.2724 92.5805 87.5797 92.5805Z" fill="#FFA03F"/>
<path d="M87.5796 103.748C87.3607 103.748 87.1964 103.693 87.0322 103.529C86.868 103.365 86.7585 103.146 86.7585 102.927V94.99C86.7585 94.5521 87.1417 94.1689 87.5796 94.1689C88.0175 94.1689 88.4007 94.5521 88.4007 94.99V101.996L94.2576 101.285C94.6955 101.23 95.1333 101.558 95.1881 101.996C95.2428 102.434 94.9144 102.872 94.4765 102.927L87.7438 103.748C87.6891 103.748 87.6343 103.748 87.5796 103.748Z" fill="#FFA03F"/>
<path d="M158.081 77.4734H75.1544C73.4575 77.4734 72.0891 76.1049 72.0891 74.4081V43.2626C72.0891 41.5657 73.4575 40.1973 75.1544 40.1973H158.081C159.778 40.1973 161.147 41.5657 161.147 43.2626V74.4081C161.092 76.1049 159.724 77.4734 158.081 77.4734Z" fill="#9A9FB2"/>
<path d="M155.947 75.3933H73.0196C71.3228 75.3933 69.9543 74.0249 69.9543 72.328V41.1825C69.9543 39.4856 71.3228 38.1172 73.0196 38.1172H155.947C157.644 38.1172 159.012 39.4856 159.012 41.1825V72.328C159.012 74.0249 157.644 75.3933 155.947 75.3933Z" fill="white"/>
<path d="M95.0239 68.1136H81.5038C79.2048 68.1136 77.3438 66.2526 77.3438 63.9536V50.4335C77.3438 48.1345 79.2048 46.2734 81.5038 46.2734H95.0239C97.3229 46.2734 99.1839 48.1345 99.1839 50.4335V63.9536C99.1292 66.2526 97.3229 68.1136 95.0239 68.1136Z" fill="#FFA03F"/>
<path d="M84.5145 63.2422C84.4598 63.2422 84.405 63.2422 84.3503 63.2422C84.0219 63.1875 83.7482 62.9685 83.6387 62.6949L81.5587 58.699C81.285 58.2064 81.5039 57.5495 81.9966 57.2759C82.4892 57.0022 83.1461 57.2211 83.4197 57.7138L84.8977 60.5601L94.8051 51.8021C95.243 51.419 95.8998 51.4737 96.283 51.9116C96.6662 52.3495 96.6114 53.0064 96.1735 53.3895L85.2808 63.0233C85.0071 63.1328 84.7334 63.2422 84.5145 63.2422Z" fill="white"/>
<path d="M152.443 49.5577H106.136C105.369 49.5577 104.767 48.9556 104.767 48.1892V47.6419C104.767 46.8756 105.369 46.2734 106.136 46.2734H152.443C153.21 46.2734 153.812 46.8756 153.812 47.6419V48.1892C153.812 48.9008 153.21 49.5577 152.443 49.5577Z" fill="#FFA03F"/>
<path d="M125.348 56.6186H105.862C105.26 56.6186 104.767 56.126 104.767 55.5239V55.086C104.767 54.4838 105.26 53.9912 105.862 53.9912H125.348C125.95 53.9912 126.443 54.4838 126.443 55.086V55.5239C126.443 56.0712 125.95 56.6186 125.348 56.6186Z" fill="#C7CAD8"/>
<path d="M125.348 68.2231H105.862C105.26 68.2231 104.767 67.7305 104.767 67.1283V66.6904C104.767 66.0883 105.26 65.5957 105.862 65.5957H125.348C125.95 65.5957 126.443 66.0883 126.443 66.6904V67.1283C126.443 67.7305 125.95 68.2231 125.348 68.2231Z" fill="#C7CAD8"/>
<path d="M125.348 62.3657H105.862C105.26 62.3657 104.767 61.873 104.767 61.2709V60.833C104.767 60.2309 105.26 59.7383 105.862 59.7383H125.348C125.95 59.7383 126.443 60.2309 126.443 60.833V61.2709C126.443 61.873 125.95 62.3657 125.348 62.3657Z" fill="#C7CAD8"/>
<path d="M152.717 56.6186H133.23C132.628 56.6186 132.136 56.126 132.136 55.5239V55.086C132.136 54.4838 132.628 53.9912 133.23 53.9912H152.717C153.319 53.9912 153.812 54.4838 153.812 55.086V55.5239C153.812 56.0712 153.319 56.6186 152.717 56.6186Z" fill="#C7CAD8"/>
<path d="M152.717 68.2231H133.23C132.628 68.2231 132.136 67.7305 132.136 67.1283V66.6904C132.136 66.0883 132.628 65.5957 133.23 65.5957H152.717C153.319 65.5957 153.812 66.0883 153.812 66.6904V67.1283C153.812 67.7305 153.319 68.2231 152.717 68.2231Z" fill="#C7CAD8"/>
<path d="M152.717 62.3657H133.23C132.628 62.3657 132.136 61.873 132.136 61.2709V60.833C132.136 60.2309 132.628 59.7383 133.23 59.7383H152.717C153.319 59.7383 153.812 60.2309 153.812 60.833V61.2709C153.812 61.873 153.319 62.3657 152.717 62.3657Z" fill="#C7CAD8"/>
<path d="M158.081 170.855H75.1544C73.4575 170.855 72.0891 169.487 72.0891 167.79V136.644C72.0891 134.948 73.4575 133.579 75.1544 133.579H158.081C159.778 133.579 161.147 134.948 161.147 136.644V167.79C161.092 169.487 159.724 170.855 158.081 170.855Z" fill="#9A9FB2"/>
<path d="M155.947 168.775H73.0196C71.3228 168.775 69.9543 167.407 69.9543 165.71V134.564C69.9543 132.867 71.3228 131.499 73.0196 131.499H155.947C157.644 131.499 159.012 132.867 159.012 134.564V165.71C159.012 167.407 157.644 168.775 155.947 168.775Z" fill="white"/>
<path d="M94.6955 150.493H78.2196C77.727 150.493 77.2891 150.055 77.2891 149.563V149.18C77.2891 148.687 77.727 148.249 78.2196 148.249H94.6955C95.1882 148.249 95.6261 148.687 95.6261 149.18V149.563C95.6261 150.11 95.1882 150.493 94.6955 150.493Z" fill="#C7CAD8"/>
<path d="M94.6955 160.346H78.2196C77.727 160.346 77.2891 159.908 77.2891 159.415V159.032C77.2891 158.539 77.727 158.102 78.2196 158.102H94.6955C95.1882 158.102 95.6261 158.539 95.6261 159.032V159.415C95.6261 159.908 95.1882 160.346 94.6955 160.346Z" fill="#C7CAD8"/>
<path d="M94.6955 155.364H78.2196C77.727 155.364 77.2891 154.926 77.2891 154.434V154.051C77.2891 153.558 77.727 153.12 78.2196 153.12H94.6955C95.1882 153.12 95.6261 153.558 95.6261 154.051V154.434C95.6261 154.926 95.1882 155.364 94.6955 155.364Z" fill="#C7CAD8"/>
<path d="M116.919 150.493H100.443C99.9503 150.493 99.5125 150.055 99.5125 149.563V149.18C99.5125 148.687 99.9503 148.249 100.443 148.249H116.919C117.412 148.249 117.849 148.687 117.849 149.18V149.563C117.904 150.11 117.466 150.493 116.919 150.493Z" fill="#C7CAD8"/>
<path d="M116.919 160.346H100.443C99.9503 160.346 99.5125 159.908 99.5125 159.415V159.032C99.5125 158.539 99.9503 158.102 100.443 158.102H116.919C117.412 158.102 117.849 158.539 117.849 159.032V159.415C117.904 159.908 117.466 160.346 116.919 160.346Z" fill="#C7CAD8"/>
<path d="M116.919 155.364H100.443C99.9503 155.364 99.5125 154.926 99.5125 154.434V154.051C99.5125 153.558 99.9503 153.12 100.443 153.12H116.919C117.412 153.12 117.849 153.558 117.849 154.051V154.434C117.904 154.926 117.466 155.364 116.919 155.364Z" fill="#C7CAD8"/>
<path d="M122.94 152.464C122.94 153.12 123.104 153.777 123.433 154.27C123.597 154.544 123.761 154.762 123.87 155.036L126.388 159.525L128.031 156.569C128.468 155.802 128.961 155.036 129.399 154.27C129.727 153.777 129.892 153.175 129.892 152.518C129.892 150.548 128.195 148.96 126.224 149.07C124.418 149.179 122.995 150.657 122.94 152.464ZM124.91 152.135C124.91 151.314 125.567 150.657 126.388 150.657C127.209 150.657 127.866 151.314 127.866 152.135C127.866 152.956 127.209 153.613 126.388 153.613C125.567 153.558 124.91 152.901 124.91 152.135Z" fill="#FFA03F"/>
<path d="M133.121 151.478C133.121 151.368 133.176 151.259 133.176 151.149C133.285 150.766 133.45 150.438 133.723 150.164C133.887 149.945 134.106 149.781 134.38 149.617C134.708 149.453 135.092 149.507 135.311 149.781C135.749 150.328 136.186 150.821 136.624 151.368C136.898 151.697 136.843 152.135 136.515 152.408C136.296 152.627 136.022 152.792 135.803 153.01C135.749 153.01 135.748 153.065 135.694 153.065C136.296 154.598 137.226 155.802 138.65 156.678C138.814 156.514 138.978 156.404 139.197 156.24C139.306 156.185 139.361 156.076 139.471 156.021C139.744 155.802 140.073 155.802 140.401 155.966C140.511 156.021 140.565 156.131 140.62 156.185C141.003 156.678 141.386 157.116 141.824 157.608C141.934 157.773 142.043 157.937 142.043 158.101C142.043 158.156 142.043 158.265 142.043 158.32C141.989 158.429 141.934 158.594 141.824 158.648C141.605 158.867 141.332 159.086 141.058 159.196C140.73 159.36 140.346 159.469 139.963 159.415C139.69 159.415 139.471 159.36 139.197 159.251C138.54 159.086 137.993 158.758 137.445 158.375C136.898 157.992 136.405 157.608 135.967 157.116C135.365 156.459 134.818 155.802 134.325 155.036C133.942 154.434 133.614 153.832 133.395 153.175C133.285 152.846 133.231 152.518 133.176 152.135C133.176 151.97 133.176 151.861 133.176 151.697C133.066 151.806 133.121 151.642 133.121 151.478Z" fill="#FFA03F"/>
<path d="M143.74 154.325C143.74 157.226 146.094 159.58 148.995 159.58C151.896 159.58 154.25 157.226 154.25 154.325C154.25 151.424 151.896 149.07 148.995 149.07C146.094 149.07 143.74 151.424 143.74 154.325ZM146.641 156.241C146.477 155.694 146.368 155.037 146.368 154.38H148.721V156.241H146.641ZM147.9 159.033C146.587 158.759 145.437 157.883 144.78 156.679H146.368C146.587 157.281 146.915 157.883 147.298 158.321C147.462 158.595 147.681 158.814 147.9 159.033ZM148.776 156.679V159.142C148.612 159.032 148.119 158.704 147.627 158.102C147.298 157.664 147.024 157.226 146.86 156.734H148.776V156.679ZM146.915 151.752C147.462 150.493 148.283 149.727 148.557 149.508C148.612 149.508 148.667 149.508 148.721 149.508V151.752H146.915ZM144.89 151.752C145.547 150.712 146.641 149.946 147.846 149.672C147.627 149.946 147.408 150.22 147.189 150.493C146.915 150.877 146.696 151.315 146.477 151.807H144.89V151.752ZM146.368 153.997C146.368 153.395 146.532 152.738 146.751 152.136H148.776V153.997H146.368ZM144.178 153.997C144.233 153.34 144.397 152.738 144.671 152.136H146.313C146.094 152.738 145.984 153.34 145.984 153.997H144.178ZM145.984 154.435C145.984 155.091 146.094 155.694 146.258 156.296H144.561C144.288 155.694 144.178 155.091 144.178 154.435H145.984ZM151.896 154.435H153.757C153.757 155.091 153.593 155.694 153.374 156.296H151.677C151.787 155.694 151.896 155.037 151.896 154.435ZM149.159 151.752V149.508C149.214 149.508 149.269 149.508 149.269 149.508C149.433 149.672 149.871 150.056 150.309 150.712C150.528 151.041 150.747 151.369 150.911 151.752H149.159ZM151.13 152.136C151.349 152.738 151.458 153.34 151.513 153.997H149.214V152.136H151.13ZM151.403 151.752C151.239 151.315 150.966 150.877 150.692 150.439C150.473 150.165 150.254 149.837 150.035 149.618C151.239 149.891 152.334 150.658 153.046 151.752H151.403ZM151.513 154.435C151.513 155.091 151.403 155.694 151.239 156.296H149.214V154.435H151.513ZM151.896 153.997C151.896 153.395 151.787 152.738 151.568 152.136H153.265C153.538 152.738 153.702 153.34 153.757 153.997H151.896ZM153.155 156.679C152.498 157.883 151.294 158.759 149.98 159.033C150.199 158.814 150.418 158.595 150.637 158.321C151.02 157.828 151.349 157.281 151.568 156.679H153.155ZM151.075 156.679C150.473 158.211 149.488 158.923 149.159 159.087V156.679H151.075Z" fill="#FFA03F"/>
<path d="M83.2008 139.929C83.2008 142.228 81.7229 143.541 79.5881 143.541C78.8218 143.541 78.0555 143.377 77.5628 143.049L78.3839 141.516C78.7671 141.79 79.1502 141.844 79.5881 141.844C80.3544 141.844 80.8471 141.461 81.0113 140.75C80.6829 140.969 80.245 141.133 79.6976 141.133C78.4934 141.133 77.4534 140.312 77.4534 139.053C77.4534 137.63 78.6576 136.754 80.1355 136.754C81.9418 136.699 83.2008 137.794 83.2008 139.929ZM80.9018 138.943C80.9018 138.506 80.6281 138.287 80.245 138.287C79.8618 138.287 79.5881 138.56 79.5881 138.943C79.5881 139.381 79.8618 139.6 80.245 139.6C80.6281 139.6 80.9018 139.327 80.9018 138.943Z" fill="#453F3F"/>
<path d="M83.6934 139.437C83.6934 138.725 84.2407 138.232 84.9523 138.232C85.6639 138.232 86.2113 138.725 86.2113 139.437C86.2113 140.148 85.6639 140.641 84.9523 140.641C84.186 140.641 83.6934 140.148 83.6934 139.437ZM83.6934 142.338C83.6934 141.626 84.2407 141.133 84.9523 141.133C85.6639 141.133 86.2113 141.626 86.2113 142.338C86.2113 143.049 85.6639 143.542 84.9523 143.542C84.186 143.542 83.6934 143.049 83.6934 142.338Z" fill="#453F3F"/>
<path d="M91.8493 141.352C91.8493 142.501 90.9735 143.596 88.8388 143.596C87.963 143.596 86.9777 143.377 86.2661 142.994L87.0324 141.352C87.5798 141.68 88.2367 141.844 88.784 141.844C89.2767 141.844 89.6598 141.68 89.6598 141.352C89.6598 141.078 89.4409 140.914 88.8935 140.914H88.0177V139.545L89.003 138.56H86.6493V136.863H91.5209V138.232L90.3167 139.491C91.3019 139.71 91.8493 140.421 91.8493 141.352Z" fill="#453F3F"/>
<path d="M92.3418 140.148C92.3418 137.958 93.6008 136.699 95.2976 136.699C97.0492 136.699 98.2534 137.958 98.2534 140.148C98.2534 142.337 96.9945 143.596 95.2976 143.596C93.6008 143.596 92.3418 142.337 92.3418 140.148ZM96.0639 140.148C96.0639 138.889 95.7355 138.506 95.2976 138.506C94.8597 138.506 94.5313 138.889 94.5313 140.148C94.5313 141.407 94.8597 141.79 95.2976 141.79C95.7903 141.845 96.0639 141.407 96.0639 140.148Z" fill="#453F3F"/>
<path d="M106.957 140.695V143.432H104.986V142.775C104.767 143.267 104.275 143.541 103.508 143.541C102.249 143.541 101.593 142.829 101.593 141.954C101.593 140.968 102.359 140.421 103.946 140.421H104.822C104.767 140.038 104.439 139.819 103.837 139.819C103.399 139.819 102.851 139.983 102.523 140.202L101.866 138.779C102.468 138.396 103.399 138.177 104.165 138.177C105.917 138.231 106.957 138.998 106.957 140.695ZM104.822 141.789V141.406H104.275C103.837 141.406 103.618 141.57 103.618 141.844C103.618 142.063 103.782 142.282 104.11 142.282C104.439 142.282 104.713 142.118 104.822 141.789Z" fill="#453F3F"/>
<path d="M116.7 140.531V143.432H114.565V140.86C114.565 140.203 114.346 139.984 114.018 139.984C113.635 139.984 113.361 140.258 113.361 140.915V143.432H111.226V140.86C111.226 140.203 111.007 139.984 110.679 139.984C110.296 139.984 110.022 140.258 110.022 140.915V143.432H107.887V138.287H109.912V138.78C110.296 138.397 110.788 138.232 111.39 138.232C112.047 138.232 112.649 138.451 112.978 138.999C113.416 138.506 114.018 138.232 114.675 138.232C115.824 138.232 116.7 138.889 116.7 140.531Z" fill="#453F3F"/>
<path d="M153.1 142.282H124.089C123.487 142.282 122.94 141.789 122.94 141.132V140.694C122.94 140.092 123.433 139.545 124.089 139.545H153.1C153.702 139.545 154.25 140.038 154.25 140.694V141.132C154.195 141.789 153.702 142.282 153.1 142.282Z" fill="#FFA03F"/>
<path d="M207.126 52.7871C207.126 52.7871 211.669 56.2903 214.461 65.4314C217.252 74.5726 217.198 88.5853 220.81 90.3369C224.423 92.0885 239.312 95.7012 239.202 101.12C239.093 106.484 225.518 104.733 217.8 101.065C210.082 97.3433 209.261 72.8757 209.261 72.8757L207.126 52.7871Z" fill="#353535"/>
<path d="M246.373 94.0589C246.373 94.0589 241.063 102.762 235.37 103.802C234.495 103.966 233.674 103.474 233.29 102.707L231.867 99.3685C231.922 99.4232 240.078 92.7452 246.373 94.0589Z" fill="#FFC2A9"/>
<path d="M230.937 102.105L231.32 102.488C231.539 102.707 231.812 102.762 232.086 102.652C234.44 101.558 245.989 96.3029 248.015 95.1534C248.179 95.0439 248.343 94.8797 248.343 94.6607L249 87.5996C249 87.4354 248.945 87.2712 248.836 87.107L248.343 86.5049L247.577 94.1134L230.937 102.105Z" fill="#453F3F"/>
<path d="M230.937 101.996L231.375 94.935C231.375 94.6613 231.703 94.2782 232.031 94.1139L247.796 86.5055C248.124 86.3412 248.453 86.396 248.398 86.6697L247.96 93.7308C247.96 94.0045 247.632 94.3876 247.303 94.5518L231.539 102.16C231.156 102.325 230.882 102.27 230.937 101.996Z" fill="#0C0B0B"/>
<path d="M234.057 99.5326L234.385 94.3873C234.385 94.1136 234.714 93.7305 235.042 93.5663L246.756 87.9283C247.084 87.7641 247.413 87.8188 247.358 88.0925L247.03 93.2378C247.03 93.5115 246.701 93.8947 246.373 94.0589L234.659 99.6968C234.331 99.9158 234.057 99.8063 234.057 99.5326Z" fill="#453F3F"/>
<path d="M232.579 98.4928C232.031 98.7665 231.593 98.6022 231.648 98.2191C231.648 97.7812 232.141 97.2338 232.688 96.9601C233.236 96.6864 233.673 96.8506 233.619 97.2338C233.619 97.6717 233.126 98.2191 232.579 98.4928Z" fill="#453F3F"/>
<path d="M234.823 92.9094C234.823 92.9094 234.494 90.0631 236.52 89.2967C238.545 88.5851 241.994 89.2967 241.994 89.2967C242.979 90.7199 240.406 91.2125 237.231 91.5957L234.823 92.9094Z" fill="#FFC2A9"/>
<path d="M238.709 99.5873C238.709 99.5873 240.187 100.901 241.008 100.08C241.884 99.3137 241.611 96.5768 241.446 95.5915C241.282 94.661 240.187 96.5768 240.133 97.6168C240.078 98.2189 239.749 99.0947 239.749 99.0947L238.709 99.5873Z" fill="#FFC2A9"/>
<path d="M241.72 97.8904C241.72 97.8904 243.307 99.2041 244.293 98.2736C245.333 97.343 245.004 94.0588 244.84 92.964C244.676 91.8145 243.253 94.1683 243.253 95.3725C243.253 96.5767 242.705 96.9599 242.705 96.9599L241.72 97.8904Z" fill="#FFC2A9"/>
<path d="M243.307 97.1241C243.307 97.1241 244.676 98.2736 245.606 97.4525C246.482 96.6315 246.208 93.7304 246.044 92.7451C245.88 91.7598 244.676 93.7851 244.621 94.8799C244.621 95.9199 244.128 96.2483 244.128 96.2483L243.307 97.1241Z" fill="#FFC2A9"/>
<path d="M239.914 99.2585C239.914 99.2585 241.501 100.572 242.486 99.6417C243.526 98.7112 243.198 95.4269 243.034 94.3322C242.869 93.1827 241.446 95.5364 241.446 96.7406C241.446 97.9449 240.899 98.328 240.899 98.328L239.914 99.2585Z" fill="#FFC2A9"/>
<path d="M216.158 92.0873C216.048 92.0873 215.993 92.0325 215.939 91.9778C215.829 91.8683 215.884 91.6494 215.993 91.5946C217.471 90.3904 219.442 89.6241 219.497 89.5694C219.661 89.5146 219.825 89.5694 219.88 89.7336C219.934 89.8978 219.88 90.062 219.715 90.1167C219.715 90.1167 217.8 90.883 216.376 92.0325C216.322 92.0873 216.267 92.0873 216.158 92.0873Z" fill="white"/>
<path d="M219.059 90.3359C219.004 90.3359 219.004 90.3359 218.949 90.3359C217.581 89.898 216.541 89.898 216.541 89.898C216.377 89.898 216.267 89.7885 216.267 89.6243C216.267 89.4601 216.377 89.3506 216.541 89.3506C216.596 89.3506 217.69 89.3506 219.113 89.8432C219.278 89.898 219.332 90.0622 219.278 90.2264C219.278 90.2811 219.168 90.3359 219.059 90.3359Z" fill="white"/>
<path d="M182.549 199.482L179.374 202.11L183.041 207.912L186.216 205.23L182.549 199.482Z" fill="#FFC2A9"/>
<path d="M182.658 227.508L169.357 206.434C169.521 206.106 169.905 205.777 170.342 205.394C172.039 204.135 175.214 202.931 177.185 202.055C177.404 201.946 177.623 201.836 177.841 201.782C178.17 201.617 178.444 201.508 178.608 201.398C180.086 200.468 180.633 201.946 180.633 201.946C179.867 205.394 184.519 205.832 184.41 207.912C184.41 207.912 184.355 208.788 183.917 211.415C183.479 214.043 184.246 217.491 184.793 220.556C185.45 224.497 184.738 226.194 183.917 226.961C183.315 227.508 182.658 227.508 182.658 227.508Z" fill="#001015"/>
<path d="M182.658 227.508L169.357 206.435C169.521 206.106 169.905 205.778 170.342 205.395L183.917 226.906C183.315 227.508 182.658 227.508 182.658 227.508Z" fill="#424208"/>
<path d="M183.753 208.788C183.753 208.788 184.903 208.569 185.122 209.609C185.341 210.649 183.917 211.415 183.917 211.415C183.917 211.415 182.33 211.689 183.753 208.788Z" fill="white"/>
<path d="M179.429 211.142C179.32 210.978 179.374 210.704 179.539 210.594C181.619 209.281 183.589 209.883 183.644 209.883C183.863 209.938 183.972 210.157 183.917 210.375C183.863 210.594 183.644 210.704 183.425 210.649C183.37 210.649 181.728 210.157 179.976 211.251C179.812 211.361 179.538 211.306 179.429 211.142Z" fill="white"/>
<path d="M184.903 213.769C184.848 213.715 184.848 213.605 184.848 213.496C184.957 212.784 184.191 211.47 183.698 210.814C183.589 210.649 183.589 210.376 183.808 210.266C183.972 210.157 184.246 210.157 184.355 210.376C184.519 210.595 185.833 212.456 185.614 213.715C185.559 213.934 185.34 214.098 185.122 214.043C185.067 213.934 184.957 213.879 184.903 213.769Z" fill="white"/>
<path d="M182.713 209.828C182.494 209.445 182.166 208.843 181.783 208.076C181.235 206.872 181.235 205.723 181.728 205.066C182.056 204.683 182.494 204.519 182.987 204.628C183.479 204.737 183.863 205.011 184.136 205.449C184.136 205.449 184.136 205.449 184.136 205.504C185.067 206.982 184.465 209.773 184.41 210.102L183.808 209.992L183.151 210.594C183.206 210.54 183.042 210.375 182.713 209.828ZM183.425 205.942C183.261 205.668 183.096 205.559 182.823 205.504C182.658 205.449 182.494 205.504 182.385 205.668C182.111 205.996 182.111 206.763 182.549 207.748C182.987 208.733 183.37 209.335 183.589 209.664C183.808 208.733 183.972 206.818 183.425 205.942Z" fill="white"/>
<path d="M183.917 210.922L184.41 210.156C185.176 210.649 186.435 210.758 186.928 210.375C187.037 210.266 187.147 210.156 187.037 209.773C186.983 209.499 186.818 209.445 186.709 209.39C186.216 209.226 185.176 209.663 184.629 210.047L184.136 209.335C184.3 209.226 185.888 208.186 186.983 208.569C187.256 208.678 187.639 208.952 187.858 209.554C188.132 210.43 187.694 210.922 187.42 211.141C186.599 211.798 184.903 211.579 183.917 210.922Z" fill="white"/>
<path d="M170.726 208.624L170.343 208.022C171.437 208.186 172.915 208.077 174.448 207.037C176.473 205.614 177.075 203.479 177.239 202.165C177.458 202.056 177.677 201.946 177.896 201.892C177.787 203.26 177.185 205.833 174.776 207.53C173.298 208.46 171.875 208.679 170.726 208.624Z" fill="#424208"/>
<path d="M182.439 211.853C182.33 211.689 182.385 211.47 182.494 211.36C182.658 211.196 182.932 211.196 183.096 211.36L184.246 212.455C184.41 212.619 184.41 212.893 184.246 213.057C184.081 213.222 183.808 213.222 183.644 213.057L182.494 211.963C182.494 211.853 182.494 211.853 182.439 211.853Z" fill="white"/>
<path d="M182.494 213.605C182.385 213.441 182.44 213.222 182.549 213.112C182.713 212.948 182.987 212.948 183.151 213.112L184.301 214.207C184.465 214.371 184.465 214.645 184.301 214.809C184.136 214.973 183.863 214.973 183.698 214.809L182.549 213.715C182.549 213.66 182.549 213.66 182.494 213.605Z" fill="white"/>
<path d="M182.604 215.411C182.494 215.247 182.549 215.028 182.658 214.918C182.823 214.754 183.096 214.754 183.26 214.918L184.41 216.013C184.574 216.177 184.574 216.451 184.41 216.615C184.246 216.779 183.972 216.779 183.808 216.615L182.658 215.52C182.658 215.465 182.658 215.411 182.604 215.411Z" fill="white"/>
<path d="M182.823 217.272C182.713 217.108 182.768 216.889 182.877 216.779C183.042 216.615 183.315 216.615 183.479 216.779L184.629 217.874C184.793 218.038 184.793 218.312 184.629 218.476C184.465 218.64 184.191 218.64 184.027 218.476L182.877 217.382C182.877 217.327 182.877 217.272 182.823 217.272Z" fill="white"/>
<path d="M183.26 219.188C183.151 219.024 183.206 218.805 183.315 218.695C183.479 218.531 183.753 218.531 183.917 218.695L185.067 219.79C185.231 219.954 185.231 220.228 185.067 220.392C184.902 220.556 184.629 220.556 184.465 220.392L183.315 219.298C183.26 219.243 183.26 219.188 183.26 219.188Z" fill="white"/>
<path d="M221.029 162.207C221.029 162.261 221.029 162.316 221.029 162.371C221.029 162.371 220.92 162.59 220.646 163.028C219.004 166.038 211.779 179.011 202.857 191.217C201.543 192.969 200.229 194.72 198.915 196.417C198.313 197.184 197.711 197.895 197.109 198.607C194.482 201.727 192.292 203.697 189.829 205.285C189.555 205.449 189.282 205.613 189.008 205.777C188.515 206.106 187.968 206.38 187.421 206.708C187.147 206.872 186.873 206.982 186.6 207.146C186.6 207.146 182.604 202.931 180.743 198.826C180.743 198.826 181.29 198.005 182.111 196.582C182.275 196.308 182.44 196.034 182.658 195.706C183.206 194.775 183.917 193.681 184.629 192.476C187.859 187.112 192.238 179.722 193.88 176.274C195.084 173.756 196.507 170.965 198.094 168.228C198.423 167.68 198.697 167.188 199.025 166.695C199.08 166.64 199.08 166.586 199.134 166.531C201.269 162.973 203.732 159.634 206.25 157.171L200.612 123.398L200.284 121.263L212.983 116.829L213.695 116.556L216.705 115.516C216.705 115.516 216.924 116.61 217.307 118.526C217.362 118.745 217.417 119.019 217.471 119.238C219.114 127.941 222.781 149.672 221.029 162.207Z" fill="#FFD787"/>
<path d="M189.829 205.285C189.555 205.449 189.282 205.614 189.008 205.778L184.136 199.264L183.698 198.662L182.166 196.582C182.33 196.308 182.494 196.034 182.713 195.706L184.246 197.731L184.684 198.333L189.829 205.285Z" fill="#453F3F"/>
<path d="M221.029 162.207C221.029 162.261 221.029 162.316 221.029 162.371C221.029 162.371 220.92 162.59 220.646 163.028C217.8 162.48 215.556 161.057 215.446 160.948C215.227 160.838 215.172 160.565 215.337 160.346C215.446 160.127 215.72 160.072 215.939 160.236C215.939 160.291 218.183 161.714 221.029 162.207Z" fill="#453F3F"/>
<path d="M209.534 158.375C209.48 158.43 203.075 164.725 184.629 198.334C184.465 198.607 184.301 198.936 184.136 199.264L183.698 198.662C183.863 198.334 184.027 198.06 184.191 197.731C201.324 166.586 207.838 159.142 208.932 158.047C207.454 152.518 202.966 124.219 202.802 123.015C202.747 122.851 202.911 122.632 203.075 122.632C203.24 122.577 203.459 122.741 203.459 122.906C203.513 123.179 208.221 153.066 209.644 158.047C209.644 158.156 209.644 158.321 209.534 158.375Z" fill="#453F3F"/>
<path d="M179.484 107.086C179.484 107.086 178.498 116.118 180.524 121.154C182.549 126.19 209.206 123.726 215.993 119.183C218.785 117.322 212.928 100.189 212.928 100.189L179.484 107.086Z" fill="#0C0B0B"/>
<path d="M217.417 119.293C217.033 119.238 216.595 119.129 216.212 118.964C215.61 118.745 215.008 118.472 214.461 118.089C213.859 117.705 213.366 117.267 212.928 116.83C210.027 113.874 209.151 109.385 209.096 109.166C209.042 109.002 209.206 108.783 209.37 108.783C209.534 108.728 209.753 108.893 209.753 109.057C209.753 109.112 210.629 113.764 213.64 116.611C214.023 116.939 214.406 117.267 214.844 117.596C215.391 117.924 215.939 118.198 216.486 118.417C216.705 118.472 216.979 118.581 217.252 118.636C217.362 118.8 217.417 119.019 217.417 119.293Z" fill="#453F3F"/>
<path d="M200.996 121.757C200.996 121.921 200.831 122.085 200.667 122.085C200.503 122.085 200.339 121.975 200.284 121.757C200.229 120.498 200.174 119.239 200.065 117.98C200.065 117.761 200.065 117.542 200.01 117.323C199.737 113.217 199.408 109.112 199.189 106.266C199.189 106.047 199.134 105.828 199.134 105.609C199.08 105.007 199.025 104.405 198.97 103.967C199.189 103.912 199.408 103.912 199.627 103.857C199.682 104.35 199.737 104.897 199.791 105.554C199.791 105.773 199.846 105.992 199.846 106.211C200.065 109.057 200.393 113.053 200.667 117.159C200.667 117.378 200.722 117.596 200.722 117.815C200.886 119.184 200.941 120.498 200.996 121.757Z" fill="#453F3F"/>
<path d="M201.981 117.377C201.871 117.432 201.378 117.651 200.776 117.815C200.557 117.87 200.338 117.925 200.12 117.979C199.901 118.034 199.682 118.034 199.463 118.034C199.025 118.034 198.642 118.034 198.313 117.87C197.875 117.651 197.656 117.322 197.547 116.83C197.328 115.571 196.781 110.316 196.452 106.594C196.452 106.375 196.397 106.156 196.397 105.937C196.343 105.335 196.288 104.788 196.233 104.35C196.452 104.35 196.671 104.295 196.89 104.295C196.945 104.733 196.999 105.28 197.054 105.882C197.054 106.101 197.109 106.32 197.109 106.539C197.437 110.261 197.93 115.516 198.204 116.72C198.258 116.994 198.368 117.213 198.587 117.322C198.97 117.487 199.517 117.487 200.01 117.322C200.229 117.268 200.448 117.213 200.667 117.158C201.05 117.049 201.378 116.884 201.597 116.775C201.762 116.72 201.981 116.775 202.035 116.939C202.254 117.103 202.145 117.322 201.981 117.377Z" fill="#453F3F"/>
<path d="M190.212 211.525L190.869 216.889H197.711L198.149 211.251L190.212 211.525Z" fill="#FFC2A9"/>
<path d="M199.189 118.69L198.861 210.649L198.751 212.127L188.625 212.072C188.515 211.415 188.296 210.321 187.968 208.952C187.913 208.624 187.804 208.35 187.749 208.022C186.435 202.384 184.246 192.805 183.863 184.43C183.315 172.497 183.534 157.116 183.534 157.116C182.385 148.248 180.688 129.09 179.812 119.292C179.812 119.073 179.757 118.854 179.757 118.636C179.484 115.351 179.265 113.271 179.265 113.271C180.907 112.614 183.863 113.052 187.037 113.983C187.256 114.038 187.475 114.092 187.749 114.202C193.277 115.844 199.189 118.69 199.189 118.69Z" fill="#FFD787"/>
<path d="M198.86 208.076V209.007L187.913 208.952C187.858 208.624 187.749 208.35 187.694 208.021L198.86 208.076Z" fill="#453F3F"/>
<path d="M199.025 159.251V160.127C197.821 160.4 196.452 160.51 195.193 160.51C192.84 160.51 190.814 160.182 190.65 160.127C190.431 160.072 190.267 159.853 190.322 159.634C190.376 159.415 190.595 159.251 190.814 159.306C190.869 159.306 195.85 160.127 199.025 159.251Z" fill="#453F3F"/>
<path d="M189.665 208.952H188.953C188.899 208.678 188.844 208.35 188.789 208.021C187.913 203.259 186.326 194.337 185.45 188.535C184.301 180.434 184.957 158.101 184.957 157.225C184.082 149.507 182.33 123.178 182.33 122.905C182.33 122.74 182.44 122.576 182.659 122.521C182.823 122.521 182.987 122.631 183.042 122.85C183.042 123.124 184.793 149.507 185.669 157.17V157.225C185.669 157.444 185.012 180.324 186.162 188.48C186.983 194.282 188.625 203.314 189.501 208.021C189.555 208.35 189.61 208.678 189.665 208.952Z" fill="#453F3F"/>
<path d="M187.694 139.381C188.242 139.381 188.789 139.272 189.336 139.108C196.617 136.864 193.223 118.472 193.059 117.651C193.004 117.432 192.785 117.268 192.511 117.268C192.292 117.322 192.128 117.541 192.128 117.815C192.128 117.87 193.004 122.522 193.004 127.394C193.004 131.773 192.347 137.192 189.008 138.232C187.64 138.67 186.435 138.451 185.341 137.63C182.002 135.112 180.414 126.792 180.524 119.785C180.524 119.512 180.305 119.348 180.086 119.348C179.812 119.348 179.648 119.567 179.648 119.785C179.593 123.289 179.976 127.066 180.688 130.24C181.345 132.977 182.549 136.645 184.793 138.341C185.724 139.053 186.709 139.381 187.694 139.381Z" fill="#453F3F"/>
<path d="M200.284 226.03C200.284 226.085 200.284 226.14 200.284 226.194C200.284 226.468 200.284 226.687 200.229 226.906C200.174 227.344 200.174 227.672 200.174 227.672L184.793 227.618C184.793 227.618 184.738 227.015 184.793 226.14C184.903 224.552 185.45 222.089 187.585 220.447C190.486 218.203 189.391 218.695 189.993 217.655C190.048 217.546 190.595 215.794 190.65 215.685C191.143 214.645 191.635 214.097 194.372 214.152C198.04 214.152 198.368 215.959 198.751 216.889C198.915 217.272 199.134 218.093 199.353 219.079C199.463 219.462 199.517 219.9 199.627 220.283C199.846 221.323 200.065 222.472 200.174 223.348C200.284 224.279 200.284 225.264 200.284 226.03Z" fill="#0C1500"/>
<path d="M200.284 226.03C200.284 226.085 200.284 226.139 200.284 226.194C200.284 226.468 200.284 226.687 200.229 226.906C199.463 226.358 198.97 225.701 198.642 224.826C197.711 222.253 199.189 219.133 199.244 218.969H199.299C199.408 219.352 199.463 219.79 199.572 220.173C199.244 221.213 198.806 223.019 199.353 224.497C199.518 225.154 199.846 225.647 200.284 226.03Z" fill="#001015"/>
<path d="M200.284 226.25C200.284 227.126 200.174 227.728 200.174 227.728L184.793 227.673C184.793 227.673 184.738 227.071 184.793 226.195L200.284 226.25Z" fill="#424208"/>
<path d="M192.675 216.396C192.62 216.396 192.566 216.396 192.511 216.342C192.128 216.178 188.679 214.535 188.46 212.893C188.406 212.565 188.46 212.072 188.953 211.634C189.446 211.196 189.884 211.196 190.212 211.306C191.745 211.744 192.949 215.192 193.168 215.849C193.223 216.013 193.168 216.178 193.058 216.287C192.894 216.342 192.785 216.396 192.675 216.396ZM189.829 212.127C189.719 212.127 189.61 212.182 189.5 212.291C189.282 212.51 189.282 212.674 189.282 212.784C189.391 213.495 190.705 214.426 191.909 215.083C191.362 213.714 190.595 212.291 189.938 212.127C189.938 212.127 189.884 212.127 189.829 212.127Z" fill="white"/>
<path d="M193.441 216.397C193.332 216.397 193.223 216.342 193.168 216.287C193.058 216.178 193.004 216.013 193.058 215.849C193.277 215.138 194.482 211.744 196.014 211.306C196.343 211.251 196.78 211.197 197.273 211.634C197.766 212.072 197.82 212.565 197.766 212.893C197.492 214.536 194.044 216.123 193.66 216.342C193.551 216.397 193.496 216.397 193.441 216.397ZM196.288 212.127C196.233 212.127 196.233 212.127 196.178 212.127C195.522 212.291 194.755 213.714 194.208 215.028C195.412 214.371 196.726 213.441 196.835 212.729C196.835 212.62 196.835 212.455 196.616 212.237C196.507 212.182 196.397 212.127 196.288 212.127Z" fill="white"/>
<path d="M193.058 215.138C193.058 215.138 192.347 214.81 192.292 215.795C192.237 216.616 192.785 216.78 193.058 216.616C193.058 216.616 193.551 216.78 193.77 216.397C193.989 216.014 193.825 214.7 193.058 215.138Z" fill="white"/>
<path d="M189.884 217.765C189.774 217.765 189.72 217.71 189.61 217.655C189.391 217.491 189.391 217.217 189.501 217.053C190.869 215.192 193.004 215.63 193.113 215.63C193.332 215.685 193.496 215.903 193.442 216.122C193.387 216.341 193.168 216.506 192.949 216.451C192.894 216.451 191.252 216.122 190.212 217.546C190.157 217.71 190.048 217.765 189.884 217.765Z" fill="white"/>
<path d="M196.616 218.258C196.452 218.258 196.288 218.148 196.233 217.984C195.522 216.397 193.059 216.013 193.004 216.013C192.785 215.959 192.621 215.74 192.621 215.521C192.675 215.302 192.894 215.138 193.113 215.138C193.223 215.138 196.124 215.63 197 217.601C197.109 217.82 197 218.094 196.781 218.203C196.726 218.258 196.671 218.258 196.616 218.258Z" fill="white"/>
<path d="M194.81 218.969C194.755 218.969 194.755 218.969 194.701 218.969C192.73 218.476 191.143 218.86 191.143 218.86C190.924 218.914 190.65 218.805 190.595 218.531C190.54 218.312 190.65 218.038 190.924 217.984C190.978 217.984 192.785 217.491 194.974 218.093C195.193 218.148 195.357 218.422 195.303 218.641C195.193 218.805 195.029 218.969 194.81 218.969Z" fill="white"/>
<path d="M194.153 220.337C194.099 220.337 194.099 220.337 194.044 220.337C192.073 219.845 190.486 220.228 190.486 220.228C190.267 220.282 189.993 220.173 189.938 219.899C189.884 219.68 189.993 219.407 190.267 219.352C190.322 219.352 192.128 218.859 194.317 219.461C194.536 219.516 194.701 219.79 194.646 220.009C194.536 220.228 194.317 220.337 194.153 220.337Z" fill="white"/>
<path d="M193.387 221.925C193.332 221.925 193.332 221.925 193.277 221.925C191.307 221.432 189.72 221.816 189.72 221.816C189.501 221.87 189.227 221.761 189.172 221.487C189.117 221.268 189.227 220.995 189.501 220.94C189.555 220.94 191.362 220.447 193.551 221.049C193.77 221.104 193.934 221.378 193.88 221.597C193.715 221.761 193.551 221.925 193.387 221.925Z" fill="#001015"/>
<path d="M189.61 109.112C189.555 109.276 189.117 111.684 187.694 114.147C186.873 115.571 185.724 117.049 184.191 118.034C182.877 118.855 181.399 119.293 179.812 119.293C179.812 119.074 179.757 118.855 179.757 118.636C181.235 118.636 182.604 118.253 183.808 117.486C185.176 116.611 186.271 115.297 187.037 113.983C188.461 111.575 188.953 109.057 188.953 109.057C189.008 108.893 189.172 108.728 189.336 108.783C189.501 108.728 189.61 108.893 189.61 109.112Z" fill="#453F3F"/>
<path d="M178.991 115.023L178.115 120.169C178.115 120.169 187.858 122.358 193.989 120.825C200.12 119.293 214.953 117.87 217.526 117.76L215.939 110.918C215.939 110.918 196.89 116.83 178.991 115.023Z" fill="white"/>
<path d="M200.065 50.488C200.065 50.488 203.732 43.1532 196.014 39.0479C190.65 36.1468 180.25 35.5994 177.075 42.1132C174.119 48.189 180.743 53.3343 180.743 53.3343C180.743 53.3343 194.919 56.4543 200.065 50.488Z" fill="#353535"/>
<path d="M187.585 41.9492C187.585 41.9492 180.907 42.825 183.315 46.3829C184.574 48.244 191.8 49.3388 191.8 49.3388C191.8 49.3388 193.223 42.825 187.585 41.9492Z" fill="#0C0B0B"/>
<path d="M215.172 109.112C215.172 109.112 190.486 117.268 179.922 113.108C179.922 113.108 176.583 112.068 175.269 105.554C175.214 105.335 175.159 105.116 175.159 104.897C174.612 101.667 174.557 97.2337 175.488 91.0484C176.637 83.6589 175.105 79.882 174.448 72.5472C174.448 72.2735 174.393 71.9998 174.393 71.7809C174.338 70.9598 174.284 70.1388 174.174 69.263C173.517 59.5745 170.397 55.4144 175.269 52.5134C180.14 49.667 186.49 47.4775 186.49 47.4775C186.49 47.4775 191.854 49.2291 195.686 47.5323C195.686 47.5323 201.488 50.3786 205.922 52.0207C210.355 53.6629 208.878 65.4314 210.246 72.1641C211.614 78.8967 213.968 84.3157 216.103 95.4822C218.019 105.663 215.172 109.112 215.172 109.112Z" fill="#353535"/>
<path d="M196.288 53.2249C196.179 53.2249 196.014 53.1154 196.014 53.006C196.014 52.8417 196.069 52.7323 196.233 52.6775C198.806 52.2396 200.065 49.8312 200.065 49.7765C200.12 49.667 200.284 49.6122 200.448 49.667C200.558 49.7217 200.612 49.8859 200.558 50.0501C200.503 50.1596 199.134 52.7323 196.288 53.2249Z" fill="#BB4000"/>
<path d="M187.585 67.074L188.077 72.7667L204.389 71.5624L203.349 66.2529L187.585 67.074Z" fill="white"/>
<path d="M215.829 94.4416C215.665 94.4416 215.501 94.2774 215.501 94.1132C215.282 91.2669 213.202 84.0963 211.943 79.8268C211.669 79.0057 211.505 78.2941 211.341 77.7467C210.41 74.5172 209.37 66.9635 209.37 66.6898C209.37 66.4709 209.48 66.3066 209.699 66.3066C209.917 66.3066 210.082 66.4161 210.082 66.6351C210.082 66.6898 211.122 74.4625 212.052 77.6373C212.216 78.1846 212.435 78.8962 212.654 79.7173C213.913 84.0415 216.048 91.2669 216.267 94.1679C216.212 94.2227 216.048 94.4416 215.829 94.4416Z" fill="white"/>
<path d="M216.431 105.663C216.431 105.663 217.471 108.893 215.993 111.027C215.993 111.027 193.825 118.636 178.991 114.968C178.991 114.968 177.677 113.326 177.294 110.042C177.294 110.097 195.139 114.585 216.431 105.663Z" fill="#FFE98A"/>
<path d="M193.715 58.9167C197.821 58.9167 199.134 55.2493 199.134 55.2493C199.189 55.0851 199.134 54.9757 198.97 54.9209C198.806 54.8662 198.696 54.9209 198.642 55.0851C198.587 55.2493 197.383 58.6431 193.332 58.4241C189.117 58.1504 183.753 55.3588 183.698 55.3041C183.589 55.2493 183.425 55.3041 183.315 55.4136C183.26 55.523 183.315 55.6872 183.425 55.7967C183.644 55.9062 188.953 58.6431 193.277 58.9715C193.442 58.9167 193.606 58.9167 193.715 58.9167Z" fill="white"/>
<path d="M210.027 92.0877C210.027 92.0877 213.202 98.3277 212.107 103.145C212.107 103.145 200.284 108.618 186.326 105.772C186.326 105.772 186.654 99.6962 186.107 94.1677C186.107 94.1677 201.433 91.9235 210.027 92.0877Z" fill="white"/>
<path d="M195.905 45.5073L195.631 47.9158C195.303 48.1347 194.974 48.1895 194.701 48.4084C191.745 50.8716 187.913 48.1347 185.943 46.2189L186.818 38.501L194.755 44.6863L195.905 45.5073Z" fill="#FFC2A9"/>
<path d="M195.905 45.5066L195.631 47.915C195.303 48.134 195.029 48.2982 194.701 48.4077C191.252 46.6013 189.008 42.5508 189.008 42.5508L194.81 44.6308L195.905 45.5066Z" fill="#0C0B0B"/>
<path d="M184.903 32.26C184.903 32.26 183.644 30.7821 183.37 29.0852C183.096 27.3884 184.848 26.2936 184.848 26.2936C184.848 26.2936 184.027 25.1442 185.012 23.6115C186.107 21.9147 188.734 22.1336 188.734 22.1336C188.734 22.1336 188.132 20.7104 189.939 19.7799C191.69 18.7946 193.496 20.382 193.496 20.382C193.496 20.382 194.099 18.6852 196.014 18.5757C197.93 18.4662 198.368 20.4368 198.368 20.4368C198.368 20.4368 202.473 18.6852 204.334 21.3126C207.017 25.1989 201.16 27.3884 201.16 27.3884C191.909 24.2684 185.341 32.7527 185.341 32.7527L184.903 32.26Z" fill="#453F3F"/>
<path d="M199.189 25.4736C199.189 25.4736 205.648 29.1958 201.324 34.0674C201.324 34.0674 198.915 27.061 199.189 25.4736Z" fill="#453F3F"/>
<path d="M200.065 35.0525C200.065 35.0525 201.597 33.5746 202.254 35.2715C202.856 36.9683 201.926 40.2526 199.901 39.4863L200.065 35.0525Z" fill="#F59876"/>
<path d="M200.941 40.9643C200.941 40.9643 200.448 46.0001 195.193 45.4528C189.993 44.9054 186.873 40.4717 186.709 40.2527L186.764 39.2127L187.037 33.6842L187.202 30.7284C187.202 30.7284 187.092 25.3642 192.183 24.9263C195.905 24.5978 199.299 25.5831 200.831 27.6631C201.379 28.4295 201.707 29.36 201.707 30.4547L201.324 35.7643L201.214 37.078L200.941 40.9643Z" fill="#FFC2A9"/>
<path d="M196.507 36.8037C196.452 36.8037 196.398 36.7489 196.343 36.6942C196.288 36.5847 196.343 36.53 196.452 36.4752L197.985 35.9279L197.109 35.1068C197.054 35.0521 197.054 35.0521 197.054 34.9973V31.6584C197.054 31.5489 197.109 31.4941 197.219 31.4941C197.328 31.4941 197.383 31.5489 197.383 31.6584V34.9426L198.423 35.8731C198.478 35.9279 198.478 35.9826 198.478 36.0373C198.478 36.0921 198.423 36.1468 198.368 36.1468L196.562 36.8037H196.507Z" fill="#0C0B0B"/>
<path d="M195.576 40.4159C194.919 40.2517 194.482 39.8685 194.482 39.8685C194.372 39.8138 194.372 39.6496 194.482 39.5401C194.536 39.4306 194.7 39.4306 194.81 39.5401C194.81 39.5401 195.631 40.2517 196.726 40.0327C196.835 39.978 196.945 40.0875 196.999 40.197C196.999 40.3064 196.945 40.4159 196.835 40.4706C196.343 40.5254 195.905 40.5254 195.576 40.4159Z" fill="#F59876"/>
<path d="M196.507 39.321C194.81 39.2115 194.099 37.7884 194.099 37.7884C194.044 37.6789 194.099 37.5147 194.208 37.46C194.318 37.4052 194.482 37.4599 194.537 37.5694C194.591 37.6242 195.412 39.321 197.711 38.7189C197.821 38.6642 197.985 38.7736 198.04 38.8831C198.094 38.9926 197.985 39.1568 197.875 39.2115C197.328 39.2663 196.89 39.321 196.507 39.321Z" fill="#0C0B0B"/>
<path d="M196.124 30.9471C196.616 30.345 196.233 29.6335 195.412 29.4692C194.536 29.305 192.675 29.1408 192.073 30.345C191.307 31.9872 194.044 31.604 195.193 31.385C195.631 31.385 195.96 31.1661 196.124 30.9471Z" fill="#453F3F"/>
<path d="M198.642 31.2749C198.368 30.6728 198.806 30.016 199.463 29.9065C200.229 29.797 201.762 29.797 201.981 31.056C202.309 32.7528 200.174 32.096 199.299 31.8223C198.97 31.7128 198.751 31.4939 198.642 31.2749Z" fill="#453F3F"/>
<path d="M200.831 27.6075C200.776 27.7717 200.667 27.9359 200.557 28.0454C199.408 29.0306 197.054 28.3738 194.919 27.4433C192.785 26.5127 191.033 27.9906 191.033 27.9906C191.416 30.1801 189.336 30.1254 189.61 31.8222C189.884 33.4644 189.5 35.5991 189.5 35.5991L188.187 35.2707C187.968 34.5044 187.366 33.6286 185.943 33.1359C184.41 33.2454 184.629 30.0707 185.669 27.6622C185.669 27.6622 187.037 25.3632 192.183 24.8706C195.905 24.5422 199.298 25.5275 200.831 27.6075Z" fill="#453F3F"/>
<path d="M194.427 35.5992C194.372 35.9824 193.606 36.2014 192.675 36.0919C191.745 35.9824 191.033 35.5992 191.033 35.2708C191.088 34.8877 191.854 34.6687 192.785 34.7782C193.77 34.8877 194.482 35.2161 194.427 35.5992Z" fill="#F59876"/>
<path d="M201.214 36.9679C201.105 36.9679 200.941 36.9679 200.831 36.9679C199.901 36.8584 199.189 36.4752 199.189 36.1468C199.244 35.7636 200.01 35.5447 200.941 35.6542C201.05 35.6542 201.214 35.7089 201.324 35.7089L201.214 36.9679Z" fill="#F59876"/>
<path d="M194.92 33.6288C194.865 34.1215 194.591 34.5046 194.317 34.5046C194.044 34.4499 193.825 34.0667 193.88 33.5194C193.934 33.0267 194.208 32.6436 194.482 32.6436C194.81 32.6983 194.974 33.1362 194.92 33.6288Z" fill="#0C0B0B"/>
<path d="M199.901 34.122C199.846 34.6146 199.572 34.9978 199.299 34.9978C199.025 34.9431 198.806 34.5599 198.861 34.0125C198.915 33.4651 199.189 33.1367 199.463 33.1367C199.791 33.1915 199.955 33.6294 199.901 34.122Z" fill="#0C0B0B"/>
<path d="M188.57 38.3359C188.515 38.3907 187.694 39.8686 186.709 40.197L186.764 39.157C186.764 39.157 187.585 39.1023 188.57 38.3359Z" fill="#0C0B0B"/>
<path d="M188.023 34.7777C188.023 34.7777 186.271 31.8766 184.574 33.8472C183.206 35.4893 185.012 40.2514 187.585 38.9377L188.023 34.7777Z" fill="#FFC2A9"/>
<path d="M185.614 37.8441C185.614 38.1178 185.778 38.3368 186.052 38.3368C186.326 38.3368 186.545 38.1726 186.545 37.8989C186.545 37.6252 186.381 37.4062 186.107 37.4062C185.888 37.4062 185.669 37.6252 185.614 37.8441Z" fill="white"/>
<path d="M187.366 38.0618C187.53 38.0618 187.585 37.9523 187.585 37.8429C187.585 35.5439 185.724 34.5039 185.614 34.5039C185.505 34.4492 185.395 34.5039 185.341 34.6134C185.286 34.7228 185.341 34.8323 185.45 34.8871C185.505 34.9418 187.147 35.8176 187.202 37.8976C187.202 38.0071 187.256 38.0618 187.366 38.0618Z" fill="#0C0B0B"/>
<path d="M185.559 36.6395C185.614 36.6395 185.669 36.6395 185.669 36.5847C185.888 36.4753 186.435 36.1468 186.818 36.2563C186.928 36.3111 187.037 36.2563 187.092 36.1468C187.147 36.0374 187.092 35.9279 186.983 35.8732C186.381 35.6542 185.559 36.1468 185.505 36.2016C185.395 36.2563 185.395 36.4205 185.45 36.4753C185.45 36.5847 185.505 36.6395 185.559 36.6395Z" fill="#0C0B0B"/>
<path d="M204.444 34.5051L201.378 34.2861L201.324 34.724L204.389 34.943C204.498 34.943 204.608 34.8882 204.608 34.724C204.663 34.6146 204.553 34.5051 204.444 34.5051Z" fill="white"/>
<path d="M192.894 36.8039C190.978 36.5849 189.61 34.8881 189.774 32.9722C189.993 31.0564 191.69 29.688 193.606 29.8522C195.522 30.0712 196.89 31.768 196.726 33.6838C196.507 35.6544 194.755 37.0228 192.894 36.8039ZM193.551 30.3449C191.854 30.1806 190.376 31.3849 190.212 33.0817C190.048 34.7786 191.252 36.2565 192.949 36.4207C194.646 36.5849 196.124 35.3807 196.288 33.6838C196.452 31.987 195.193 30.5091 193.551 30.3449Z" fill="white"/>
<path d="M201.05 37.6798C199.134 37.4609 197.766 35.764 197.93 33.8482C198.149 31.9324 199.846 30.564 201.762 30.7282C203.678 30.9471 205.046 32.644 204.882 34.5598C204.663 36.4756 202.911 37.844 201.05 37.6798ZM201.707 31.1661C200.01 31.0019 198.532 32.2061 198.368 33.903C198.204 35.5998 199.408 37.0777 201.105 37.2419C202.802 37.4061 204.28 36.2019 204.444 34.5051C204.608 32.863 203.349 31.3303 201.707 31.1661Z" fill="white"/>
<path d="M185.614 33.3004H185.559C185.45 33.2457 185.395 33.1362 185.45 33.0267C186.599 30.7278 190.103 32.3151 190.157 32.3699C190.267 32.4246 190.322 32.5341 190.267 32.6436C190.212 32.753 190.103 32.8078 189.993 32.753C189.938 32.753 186.818 31.3299 185.833 33.2457C185.778 33.3004 185.724 33.3551 185.614 33.3004Z" fill="white"/>
<path d="M198.204 33.3556C198.149 33.3556 198.094 33.3008 198.04 33.3008C197.547 32.644 196.616 33.0819 196.616 33.0819C196.507 33.1366 196.398 33.0819 196.343 32.9724C196.288 32.8629 196.343 32.7535 196.452 32.6987C196.89 32.5345 197.821 32.3156 198.368 33.0272C198.423 33.1366 198.423 33.2461 198.313 33.3008C198.313 33.3556 198.259 33.3556 198.204 33.3556Z" fill="white"/>
<path d="M185.997 45.9443C185.997 45.9443 190.76 49.5023 192.183 49.4475C192.183 49.4475 190.376 51.5275 187.475 51.8012C183.698 52.1296 177.349 51.3086 177.349 51.3086C177.349 51.3086 182.056 47.6959 185.997 45.9443Z" fill="white"/>
<path d="M185.122 53.8271C181.235 53.8271 178.389 51.1997 178.279 51.0903C178.17 50.9808 178.17 50.8166 178.279 50.7071C178.389 50.5976 178.553 50.5976 178.663 50.7071C178.717 50.7071 181.618 53.3892 185.395 53.2798C185.559 53.2798 185.669 53.3892 185.669 53.5534C185.669 53.7177 185.559 53.8271 185.395 53.8271C185.286 53.8271 185.176 53.8271 185.122 53.8271Z" fill="white"/>
<path d="M195.905 46.0537C195.905 46.0537 194.974 48.7906 192.128 49.4474C192.128 49.4474 192.73 52.0201 195.576 51.6369C198.423 51.2538 200.01 49.6116 200.01 49.6116C200.01 49.6116 198.149 46.0537 195.905 46.0537Z" fill="white"/>
<path d="M191.964 96.3573C192.073 96.3573 192.183 96.2479 192.183 96.1931C193.113 77.5824 188.023 49.6664 187.968 49.3927C187.968 49.2833 187.858 49.2285 187.749 49.2285C187.639 49.2285 187.585 49.338 187.585 49.4475C187.639 49.7211 192.73 77.5824 191.799 96.1384C191.745 96.2479 191.854 96.3573 191.964 96.3573Z" fill="white"/>
<path d="M204.389 95.1541C204.499 95.1541 204.608 95.0447 204.608 94.9352C204.006 72.4929 196.452 49.5032 196.398 49.2843C196.343 49.1748 196.233 49.1201 196.124 49.1748C196.014 49.2295 195.96 49.339 196.014 49.4485C196.069 49.6674 203.623 72.5476 204.225 94.9899C204.225 95.0447 204.28 95.1541 204.389 95.1541Z" fill="white"/>
<path d="M186.271 106.155C186.271 106.155 174.503 107.688 166.675 102.598C162.241 99.6964 159.012 94.7153 159.942 86.1216C159.942 86.0121 159.997 85.8479 159.997 85.7384C162.296 66.7446 171.054 56.5634 174.174 53.4982C175.105 52.6224 176.364 52.1297 177.623 52.3487C181.126 52.896 183.37 58.0413 176.637 82.29C174.119 94.2227 185.669 95.7006 185.669 95.7006L186.271 106.155Z" fill="#353535"/>
<path d="M176.364 84.9718C176.309 84.9718 176.309 84.9718 176.254 84.9718C176.09 84.9171 175.98 84.6981 176.035 84.4792C176.09 84.315 181.29 70.1928 181.673 62.5843C181.673 62.3653 181.837 62.2559 182.056 62.2559C182.275 62.2559 182.44 62.4201 182.385 62.639C182.002 70.3022 176.747 84.5887 176.692 84.7529C176.637 84.8624 176.473 84.9718 176.364 84.9718Z" fill="white"/>
<path d="M181.18 68.6056C181.126 68.6056 181.071 68.6056 181.016 68.5508C180.852 68.4414 180.797 68.2224 180.907 68.0582L183.206 64.6645C183.315 64.5003 183.534 64.4455 183.698 64.555C183.863 64.6645 183.917 64.8834 183.808 65.0476L181.509 68.4414C181.454 68.5508 181.29 68.6056 181.18 68.6056Z" fill="white"/>
<path d="M183.808 106.813C183.644 106.813 183.534 106.703 183.479 106.594C182.275 103.419 182.932 94.5514 182.932 94.1683C182.932 93.9493 183.151 93.8398 183.315 93.8398C183.534 93.8398 183.644 94.0041 183.644 94.223C183.644 94.3325 182.987 103.309 184.136 106.375C184.191 106.539 184.136 106.758 183.917 106.867C183.863 106.813 183.862 106.813 183.808 106.813Z" fill="white"/>
<path d="M186.654 106.046C186.599 105.827 186.38 105.718 186.216 105.772C186.162 105.772 181.29 107.031 175.871 105.608C175.597 105.553 175.378 105.772 175.433 105.991C175.433 106.155 175.542 106.265 175.707 106.265C177.349 106.703 178.991 106.922 180.414 106.977C183.808 107.086 186.271 106.484 186.435 106.429C186.599 106.429 186.709 106.21 186.654 106.046Z" fill="white"/>
<path d="M183.479 94.5521C183.315 94.5521 183.151 94.552 183.042 94.4973C181.454 94.3331 179.21 93.5668 177.404 90.7752C177.294 90.611 177.349 90.392 177.513 90.2825C177.677 90.1731 177.896 90.2278 178.006 90.392C181.235 95.2636 185.724 93.512 185.778 93.512C185.943 93.4573 186.162 93.512 186.271 93.731C186.326 93.8952 186.271 94.1142 186.052 94.2236C185.943 94.2236 184.903 94.6068 183.479 94.5521Z" fill="white"/>
<path d="M166.73 102.598C162.296 99.6969 159.067 94.7158 159.997 86.1221C163.062 89.7895 167.934 96.7411 166.73 102.598Z" fill="white"/>
<path d="M243.143 81.7972H231.867C231.32 81.7972 230.882 81.3593 230.882 80.8119V69.5361C230.882 68.9887 231.32 68.5508 231.867 68.5508H243.143C243.691 68.5508 244.129 68.9887 244.129 69.5361V80.8119C244.129 81.3593 243.691 81.7972 243.143 81.7972Z" fill="#353535"/>
<path d="M235.48 78.7323C235.425 78.7323 235.425 78.7323 235.37 78.7323C235.206 78.6775 235.042 78.5681 234.933 78.4039L233.728 76.1049C233.564 75.8312 233.674 75.448 234.002 75.2838C234.276 75.1196 234.659 75.2291 234.823 75.5575L235.644 77.1449L241.282 72.1638C241.501 71.9448 241.884 71.9449 242.103 72.2185C242.322 72.4922 242.322 72.8206 242.048 73.0396L235.863 78.5133C235.808 78.6775 235.644 78.7323 235.48 78.7323Z" fill="white"/>
<path d="M233.072 81.6875L233.509 84.6981C233.564 85.1907 234.276 85.3002 234.495 84.8623L236.356 81.6875H233.072Z" fill="#777D15"/>
</svg>
